<svg width="16" height="16" viewBox="0 0 16 16" fill="none" xmlns="http://www.w3.org/2000/svg">
<path fill-rule="evenodd" clip-rule="evenodd" d="M3.67627 2.46484H5.77051V2.23536C5.77051 1.40694 6.44208 0.735364 7.27051 0.735364H8.72947C9.55789 0.735364 10.2295 1.40694 10.2295 2.23536V2.46484H12.3237H12.8237V2.47306H14C14.2761 2.47306 14.5 2.69692 14.5 2.97306C14.5 3.24921 14.2761 3.47306 14 3.47306H12.8237V12.7648C12.8237 14.1456 11.7044 15.2648 10.3237 15.2648H5.67627C4.29556 15.2648 3.17627 14.1456 3.17627 12.7648V3.47306H2C1.72386 3.47306 1.5 3.24921 1.5 2.97306C1.5 2.69692 1.72386 2.47306 2 2.47306H3.17627V2.46484H3.67627ZM4.17627 3.47306V12.7648C4.17627 13.5933 4.84784 14.2648 5.67627 14.2648H10.3237C11.1521 14.2648 11.8237 13.5933 11.8237 12.7648V3.47306H4.17627ZM9.22947 2.46484H6.77051V2.23536C6.77051 1.95922 6.99437 1.73536 7.27051 1.73536H8.72947C9.00561 1.73536 9.22947 1.95922 9.22947 2.23536V2.46484Z" fill="#2e2e2e"/>
</svg>
