<svg width="16" height="16" viewBox="0 0 16 16" fill="none" xmlns="http://www.w3.org/2000/svg">
<path fill-rule="evenodd" clip-rule="evenodd" d="M5.5 4V12C5.5 12.5523 5.05228 13 4.5 13C3.94772 13 3.5 12.5523 3.5 12V4C3.5 3.44772 3.94772 3 4.5 3C5.05228 3 5.5 3.44772 5.5 4ZM2.5 4C2.5 2.89543 3.39543 2 4.5 2C5.60457 2 6.5 2.89543 6.5 4V12C6.5 13.1046 5.60457 14 4.5 14C3.39543 14 2.5 13.1046 2.5 12V4ZM12.5 4V12C12.5 12.5523 12.0523 13 11.5 13C10.9477 13 10.5 12.5523 10.5 12V4C10.5 3.44772 10.9477 3 11.5 3C12.0523 3 12.5 3.44772 12.5 4ZM9.5 4C9.5 2.89543 10.3954 2 11.5 2C12.6046 2 13.5 2.89543 13.5 4V12C13.5 13.1046 12.6046 14 11.5 14C10.3954 14 9.5 13.1046 9.5 12V4Z" fill="#171717"/>
</svg>
