<svg width="16" height="16" viewBox="0 0 16 16" fill="none" xmlns="http://www.w3.org/2000/svg">
<path fill-rule="evenodd" clip-rule="evenodd" d="M5.74442 13.4322L12.7283 8.90548C13.058 8.69176 13.252 8.35635 13.252 8.00015C13.252 7.64395 13.058 7.30853 12.7283 7.09481L5.74442 2.56814C5.34775 2.31095 4.81703 2.26958 4.37354 2.46128C3.93005 2.65297 3.6499 3.04483 3.6499 3.47347V12.5268C3.6499 12.9555 3.93005 13.3473 4.37354 13.539C4.81703 13.7307 5.34775 13.6893 5.74442 13.4322ZM12.1843 7.93388L5.20052 3.40729L5.2004 3.40721C5.09175 3.33676 4.91488 3.31671 4.7703 3.3792C4.70534 3.40728 4.6724 3.44122 4.6589 3.4601C4.65315 3.46814 4.65078 3.47334 4.6499 3.47582V12.5245C4.65078 12.527 4.65315 12.5322 4.6589 12.5402C4.6724 12.5591 4.70534 12.593 4.7703 12.6211C4.91488 12.6836 5.09175 12.6635 5.2004 12.5931L5.20052 12.593L12.1843 8.06641C12.1843 8.06639 12.1844 8.06636 12.1844 8.06633C12.224 8.04062 12.2417 8.01674 12.2481 8.00558C12.2494 8.00335 12.2503 8.00154 12.251 8.00015C12.2503 7.99875 12.2494 7.99695 12.2481 7.99472C12.2417 7.98356 12.224 7.95967 12.1844 7.93396C12.1844 7.93394 12.1843 7.93391 12.1843 7.93388ZM4.64945 12.5227C4.64949 12.5228 4.64961 12.5231 4.64972 12.5239L4.64945 12.5227ZM4.64945 3.47755C4.64941 3.47755 4.64947 3.47715 4.64973 3.47634L4.64945 3.47755Z" fill="#171717"/>
</svg>
