<svg width="12" height="12" viewBox="0 0 12 12" fill="none" xmlns="http://www.w3.org/2000/svg">
<g clip-path="url(#clip0_129_1029)">
<path d="M4.02119 4.62178L9.96652 9.47119M9.96652 2.89572L4.02119 7.74513M8.59669 6.18369L8.58596 6.19442M10.7992 6.18366L10.7885 6.19439M2.84309 5.08754C1.9352 5.08754 1.19922 4.35156 1.19922 3.44367C1.19922 2.53579 1.9352 1.7998 2.84309 1.7998C3.75097 1.7998 4.48696 2.53579 4.48696 3.44367C4.48696 4.35156 3.75097 5.08754 2.84309 5.08754ZM2.84309 10.5671C1.9352 10.5671 1.19922 9.83112 1.19922 8.92324C1.19922 8.01535 1.9352 7.27937 2.84309 7.27937C3.75097 7.27937 4.48696 8.01535 4.48696 8.92324C4.48696 9.83112 3.75097 10.5671 2.84309 10.5671Z" stroke="#3e3e3e" stroke-linecap="round" stroke-linejoin="round"/>
</g>
<defs>
<clipPath id="clip0_129_1029">
<rect width="12" height="12" fill="white" transform="translate(12) rotate(90)"/>
</clipPath>
</defs>
</svg>
