<svg width="16" height="16" viewBox="0 0 16 16" fill="none" xmlns="http://www.w3.org/2000/svg">
<path fill-rule="evenodd" clip-rule="evenodd" d="M3.5 2C3.22386 2 3 2.22386 3 2.5V4.5C3 4.77614 3.22386 5 3.5 5C3.77614 5 4 4.77614 4 4.5V3H7.5V13H5.5C5.22386 13 5 13.2239 5 13.5C5 13.7761 5.22386 14 5.5 14H8H10.5C10.7761 14 11 13.7761 11 13.5C11 13.2239 10.7761 13 10.5 13H8.5V3H12V4.5C12 4.77614 12.2239 5 12.5 5C12.7761 5 13 4.77614 13 4.5V2.5C13 2.22386 12.7761 2 12.5 2H8H3.5Z" fill="#4e4e4e"/>
</svg>
