<svg width="16" height="16" viewBox="0 0 16 16" fill="none" xmlns="http://www.w3.org/2000/svg">
<path fill-rule="evenodd" clip-rule="evenodd" d="M13 13.5H3C2.44772 13.5 2 13.0523 2 12.5V4C2 3.44772 2.44772 3 3 3H13C13.5523 3 14 3.44772 14 4V12.5C14 13.0523 13.5523 13.5 13 13.5ZM15 12.5C15 13.6046 14.1046 14.5 13 14.5H3C1.89543 14.5 1 13.6046 1 12.5V4C1 2.89543 1.89543 2 3 2H13C14.1046 2 15 2.89543 15 4V12.5ZM7.12443 5.19899C6.62735 4.85103 5.94434 5.20665 5.94434 5.81342V10.2975C5.94434 10.9043 6.62735 11.2599 7.12443 10.912L10.3274 8.6699C10.7539 8.37132 10.7539 7.73963 10.3274 7.44105L7.12443 5.19899ZM6.94434 9.81737V6.29358L9.46133 8.05547L6.94434 9.81737Z" fill="#4e4e4e"/>
</svg>
