<svg width="16" height="16" viewBox="0 0 16 16" fill="none" xmlns="http://www.w3.org/2000/svg">
<path fill-rule="evenodd" clip-rule="evenodd" d="M2.75 3.5H13.25C13.8023 3.5 14.25 3.94772 14.25 4.5V11.5C14.25 12.0523 13.8023 12.5 13.25 12.5H2.75C2.19772 12.5 1.75 12.0523 1.75 11.5V4.5C1.75 3.94772 2.19772 3.5 2.75 3.5ZM0.75 4.5C0.75 3.39543 1.64543 2.5 2.75 2.5H13.25C14.3546 2.5 15.25 3.39543 15.25 4.5V11.5C15.25 12.6046 14.3546 13.5 13.25 13.5H2.75C1.64543 13.5 0.75 12.6046 0.75 11.5V4.5ZM6.65389 5.2472C6.49901 5.1616 6.31042 5.16425 6.158 5.25416C6.00558 5.34407 5.91205 5.50785 5.91205 5.68481V10.3153C5.91205 10.4912 6.00442 10.6541 6.15531 10.7444C6.3062 10.8347 6.49343 10.8391 6.64839 10.7559L10.9003 8.47524C11.0617 8.38869 11.1628 8.22086 11.164 8.03776C11.1651 7.85466 11.0661 7.68558 10.9058 7.59701L6.65389 5.2472ZM6.91205 9.47975V6.53241L9.61843 8.02807L6.91205 9.47975Z" fill="#171717"/>
</svg>
